<svg width="56" height="56" fill="none" xmlns="http://www.w3.org/2000/svg"><path d="M4 28C4 14.745 14.745 4 28 4s24 10.745 24 24-10.745 24-24 24S4 41.255 4 28z" fill="#3F9FFC"/><path fill-rule="evenodd" clip-rule="evenodd" d="M25.44 24.36V16.8h-7.56l2.658 2.658C18.256 21.44 16.8 24.35 16.8 27.6v1.08h2.16V27.6c0-2.667 1.216-5.03 3.107-6.613l3.373 3.373zm8.494-5.573l-1.868-1.08-1.08 1.871 1.868 1.08 1.08-1.87zm2.479 2.479l1.08 1.869-1.871 1.08-1.08-1.87 1.871-1.08zM38.4 27.6v-1.08h-2.16v1.08c0 2.667-1.217 5.03-3.107 6.613L29.76 30.84v7.56h7.56l-2.658-2.658c2.282-1.982 3.738-4.89 3.738-8.142zm-18.822 3.383l1.08 1.872-1.871 1.08-1.08-1.872 1.871-1.08zm4.637 4.64l-1.87-1.08-1.08 1.87 1.87 1.08 1.08-1.87z" fill="#fff"/><path d="M28 48C16.954 48 8 39.046 8 28H0c0 15.464 12.536 28 28 28v-8zm20-20c0 11.046-8.954 20-20 20v8c15.464 0 28-12.536 28-28h-8zM28 8c11.046 0 20 8.954 20 20h8C56 12.536 43.464 0 28 0v8zm0-8C12.536 0 0 12.536 0 28h8C8 16.954 16.954 8 28 8V0z" fill="#fff"/></svg>