<svg width="20" height="20" fill="none" xmlns="http://www.w3.org/2000/svg"><rect width="20" height="20" rx="10" fill="#1A8BFF"/><path d="M16.205 8.942l-1.655-.27a4.74 4.74 0 0 0-.395-.954l.966-1.377a.28.28 0 0 0-.032-.359l-1.088-1.088a.28.28 0 0 0-.362-.03l-1.356.975a4.695 4.695 0 0 0-.96-.4l-.29-1.647a.28.28 0 0 0-.275-.232h-1.54a.28.28 0 0 0-.277.235l-.267 1.639a4.717 4.717 0 0 0-.963.395L6.36 4.863a.28.28 0 0 0-.361.03L4.91 5.981a.28.28 0 0 0-.032.359L5.83 7.7c-.17.307-.304.632-.403.97l-1.632.271a.28.28 0 0 0-.234.276v1.54a.28.28 0 0 0 .23.276l1.633.29c.098.336.233.66.403.968l-.964 1.348a.28.28 0 0 0 .03.36l1.089 1.09a.28.28 0 0 0 .358.032l1.364-.955c.306.168.63.302.965.398l.273 1.641a.28.28 0 0 0 .276.234h1.54a.28.28 0 0 0 .275-.231l.293-1.65a4.65 4.65 0 0 0 .96-.401l1.374.963a.28.28 0 0 0 .358-.03l1.09-1.09a.28.28 0 0 0 .028-.362l-.98-1.36c.167-.302.299-.622.395-.954l1.657-.291a.28.28 0 0 0 .231-.276v-1.54a.28.28 0 0 0-.234-.276zM10 11.96a1.96 1.96 0 1 1 0-3.92 1.96 1.96 0 0 1 0 3.92z" fill="#fff"/></svg>