<svg width="162" height="48" fill="none" xmlns="http://www.w3.org/2000/svg"><path d="M0 16c0-5.6 0-8.4 1.09-10.54a10 10 0 0 1 4.37-4.37C7.6 0 10.4 0 16 0h130c5.601 0 8.401 0 10.54 1.09a10 10 0 0 1 4.37 4.37C162 7.6 162 10.4 162 16v16c0 5.6 0 8.4-1.09 10.54a10 10 0 0 1-4.37 4.37C154.401 48 151.601 48 146 48H16c-5.6 0-8.4 0-10.54-1.09a10 10 0 0 1-4.37-4.37C0 40.4 0 37.6 0 32V16z" fill="#000"/><path d="M24 8C15.164 8 8 15.276 8 24.25 8 31.865 13.163 38.237 20.123 40a2.404 2.404 0 0 1-.123-.79v-2.777h-2.01c-1.095 0-2.069-.478-2.54-1.366-.525-.988-.615-2.498-1.914-3.421-.385-.308-.092-.658.352-.61.82.235 1.5.806 2.14 1.654.637.85.937 1.041 2.128 1.041.577 0 1.441-.034 2.255-.163.437-1.129 1.193-2.167 2.117-2.657-5.328-.557-7.87-3.25-7.87-6.904 0-1.574.66-3.096 1.78-4.378-.367-1.273-.83-3.87.142-4.858 2.397 0 3.847 1.58 4.195 2.006a11.824 11.824 0 0 1 3.885-.652c1.381 0 2.699.236 3.896.654.344-.424 1.795-2.008 4.197-2.008.976.99.508 3.597.136 4.867 1.115 1.28 1.771 2.798 1.771 4.369 0 3.652-2.539 6.343-7.859 6.902 1.464.776 2.532 2.956 2.532 4.6v3.702c0 .14-.03.242-.046.362C35.52 37.353 40 31.341 40 24.25 40 15.276 32.836 8 24 8zm32.272 2.192h-3v8.856h3c3.156 0 4.68-2.244 4.68-4.308v-.264c0-2.112-1.524-4.284-4.68-4.284zm.12 7.776h-1.944v-6.696h1.944c2.1 0 3.36 1.368 3.36 3.336 0 1.896-1.26 3.36-3.36 3.36zm9.168 1.248c2.232 0 3.432-1.692 3.432-3.312v-.216c0-1.644-1.26-3.312-3.432-3.312-2.172 0-3.432 1.668-3.432 3.312v.216c0 1.62 1.2 3.312 3.432 3.312zm0-1.032c-1.44 0-2.28-1.044-2.28-2.388 0-1.368.876-2.388 2.28-2.388s2.28 1.02 2.28 2.388c0 1.344-.84 2.388-2.28 2.388zm12.612-5.592l-1.32 5.496h-.24l-1.284-5.28h-1.56l-1.104 5.28h-.24l-1.512-5.496h-1.104L71.62 19h1.8l1.128-5.328L75.856 19h1.788l1.572-6.408h-1.044zm5.792-.192h-.048c-1.212 0-1.944.588-2.232 1.68v-1.488h-.912V19h1.152v-3.828c0-1.032.684-1.716 1.692-1.716.972 0 1.572.648 1.572 1.644V19h1.152v-3.66c0-1.896-.768-2.94-2.376-2.94zm5.708-2.16h-2.04v.912h.888V19h1.152v-8.76zm5.161 8.976c2.232 0 3.432-1.692 3.432-3.312v-.216c0-1.644-1.26-3.312-3.432-3.312-2.172 0-3.432 1.668-3.432 3.312v.216c0 1.62 1.2 3.312 3.432 3.312zm0-1.032c-1.44 0-2.28-1.044-2.28-2.388 0-1.368.876-2.388 2.28-2.388s2.28 1.02 2.28 2.388c0 1.344-.84 2.388-2.28 2.388zm7.114-5.664c-.576 0-1.248.024-1.764.072V13.6a35.436 35.436 0 0 1 2.148-.072c.876 0 1.344.456 1.344 1.332v.156h-1.62c-1.668 0-2.616.708-2.616 2.064 0 1.332.876 2.088 2.328 2.088 1.116 0 1.824-.492 2.1-1.428V19h.912v-4.056c0-1.788-.864-2.424-2.832-2.424zm.06 5.736c-.924 0-1.44-.468-1.44-1.176s.516-1.2 1.44-1.2h1.668v.744c-.048 1.248-.864 1.632-1.668 1.632zm9.794-8.016v3.324c-.492-.816-1.332-1.188-2.268-1.188-1.848 0-3.12 1.488-3.12 3.312v.216c0 1.848 1.332 3.312 3.156 3.312 1.02 0 1.98-.456 2.472-1.536V19h.912v-8.76h-1.152zm.048 5.772c0 1.356-.948 2.196-2.124 2.196-1.26 0-2.16-.936-2.16-2.412 0-1.452.864-2.412 2.148-2.412 1.14 0 2.136.756 2.136 2.076v.552zm9.348-3.348h-2.028v-.588c0-.576.324-.924.924-.924h.984v-.96h-.792c-1.452 0-2.22.648-2.22 2.076v.396h-.888v.864h.888V19h1.104v-5.472h2.028v-.864zm4.583-.144c-1.416 0-2.22.624-2.424 1.992v-1.92h-.912V19h1.152v-3.468c0-1.272.708-1.98 1.992-1.98h.408V12.52h-.216zm4.467 6.696c2.232 0 3.432-1.692 3.432-3.312v-.216c0-1.644-1.26-3.312-3.432-3.312-2.172 0-3.432 1.668-3.432 3.312v.216c0 1.62 1.2 3.312 3.432 3.312zm0-1.032c-1.44 0-2.28-1.044-2.28-2.388 0-1.368.876-2.388 2.28-2.388s2.28 1.02 2.28 2.388c0 1.344-.84 2.388-2.28 2.388zm12.406-5.784h-.048c-1.092 0-1.788.564-2.088 1.584-.288-1.02-.972-1.584-2.064-1.584h-.048c-1.128 0-1.812.6-2.088 1.668v-1.476h-.912V19h1.152v-3.84c0-1.068.624-1.704 1.572-1.704.912 0 1.452.6 1.452 1.632V19h1.152v-3.84c0-1.068.624-1.704 1.572-1.704.912 0 1.452.6 1.452 1.632V19h1.152v-3.66c0-1.86-.744-2.94-2.256-2.94zM62.439 32.242h-5.161v1.287h2.808v1.222c-.559.598-1.43.975-2.496.975-1.95 0-3.25-1.261-3.25-3.523 0-2.041 1.209-3.406 3.042-3.406 1.365 0 2.522.741 2.691 2.08h1.69c-.195-2.145-1.924-3.64-4.381-3.64-3.029 0-4.732 2.392-4.732 4.81v.286c0 2.613 1.781 4.914 4.94 4.914 1.794 0 3.224-.689 4.043-1.898v-1.82h.806v-1.287zm2.353-3.198c.663 0 .975-.377.975-.91 0-.546-.312-.923-.975-.923s-.962.377-.962.923c0 .533.3.91.962.91zm1.08.936h-2.653v1.235h1.014V37h1.638v-7.02zm6.178 1.209V29.98h-2.248v-2.028h-1.535v2.028h-1.143v1.209h1.144l-.014 3.25c0 2.002.936 2.652 2.756 2.652h1.04v-1.417h-1.144c-.702 0-1.105-.403-1.105-1.105v-3.38h2.25zm5.444-1.43h-.065c-1.08 0-1.781.507-2.158 1.417V27.51h-1.638V37h1.638v-4.056c0-1.014.624-1.703 1.586-1.703.884 0 1.482.585 1.482 1.547V37h1.638v-4.004c0-2.093-.845-3.237-2.483-3.237zm8.989.208v4.16c0 1.001-.637 1.612-1.534 1.612-.871 0-1.43-.572-1.43-1.508v-4.264h-1.638v4.082c0 2.08.923 3.172 2.561 3.172h.065c1.248 0 2.015-.637 2.314-1.859V37h1.3v-7.033h-1.638zm7.927-.221c-1.066 0-1.95.455-2.47 1.391V27.51h-1.638V37h1.3v-1.482c.468 1.105 1.443 1.716 2.704 1.716 2.04 0 3.367-1.625 3.367-3.64v-.26c0-2.015-1.287-3.588-3.263-3.588zm-.442 6.097c-1.08 0-2.08-.754-2.08-2.041v-.546c0-1.326.962-2.119 2.08-2.119 1.235 0 2.067.923 2.067 2.327s-.832 2.379-2.067 2.379z" fill="#fff"/></svg>