<svg width="62" height="62" viewBox="0 0 133 133" xmlns="http://www.w3.org/2000/svg"><path d="M67.019 77.999l31.41 46.848C88.954 130.045 78.072 133 66.5 133c-11.247 0-21.841-2.792-31.128-7.72l31.607-47.281h.04zM66.5 0C103.227 0 133 29.773 133 66.5c0 21.22-9.938 40.117-25.414 52.293L72.6 66.787v-.388l34.801.001V55.8L72.4 55.799V44.3h35V33.7h-81v10.6h35.099v11.499L26.6 55.8v10.6l34.799-.001v.48L25.94 119.203C10.164 107.043 0 87.959 0 66.5 0 29.773 29.773 0 66.5 0z" fill="#e43c34" fill-rule="evenodd"/></svg>