<svg width="56" height="56" fill="none" xmlns="http://www.w3.org/2000/svg"><circle cx="28" cy="28" r="28" fill="#fff"/><path fill-rule="evenodd" clip-rule="evenodd" d="M28 32.99l12.642 20A27.883 27.883 0 0 1 28 56a27.882 27.882 0 0 1-12.642-3.01L28 32.99zM28 0c15.464 0 28 12.536 28 28 0 9.26-4.495 17.47-11.421 22.567L30.273 27.943h14.638V23.12H30.273v-4.964h14.638v-4.823H11.09v4.823h14.64v4.964H11.09v4.823h14.64L11.422 50.567C4.495 45.47 0 37.26 0 28 0 12.536 12.536 0 28 0z" fill="#D0021B"/></svg>