<svg width="45" height="45" fill="none" xmlns="http://www.w3.org/2000/svg"><path fill-rule="evenodd" clip-rule="evenodd" d="M22.488 0C10.842 0 1.234 8.896.102 20.25h4.54C5.755 11.385 13.326 4.5 22.488 4.5s16.732 6.885 17.846 15.75h4.54C43.739 8.896 34.133 0 22.488 0zM.102 24.75c.45 4.518 2.259 8.634 4.988 11.966l3.195-3.194a17.949 17.949 0 0 1-3.643-8.772H.102zM36.6 33.592a18.171 18.171 0 0 1-3.186 3.173l2.276 3.902a22.747 22.747 0 0 0 4.803-4.742L36.6 33.592zm-25.13 3.107l-3.2 3.199a22.494 22.494 0 0 0 10.38 4.768l.321-4.526a17.928 17.928 0 0 1-7.501-3.441zm18.061 2.342a17.936 17.936 0 0 1-6.073 1.415l-.32 4.513a22.342 22.342 0 0 0 8.665-2.034l-2.272-3.894z" fill="#000" fill-opacity=".4"/></svg>